<svg xmlns="http://www.w3.org/2000/svg" version="1.1" xmlns:xlink="http://www.w3.org/1999/xlink" xmlns:svgjs="http://svgjs.dev/svgjs" width="1000" height="810" viewBox="0 0 1000 810"><g transform="matrix(1,0,0,1,0.9603448275862547,-1.1460638297870673)"><svg viewBox="0 0 174 141" data-background-color="#ffffff" preserveAspectRatio="xMidYMid meet" height="810" width="1000" xmlns="http://www.w3.org/2000/svg" xmlns:xlink="http://www.w3.org/1999/xlink"><g id="tight-bounds" transform="matrix(1,0,0,1,-0.1671000000000049,0.19949999999997203)"><svg viewBox="0 0 174.3342 140.60052000000002" height="140.60052000000002" width="174.3342"><g><svg viewBox="0 0 174.3342 140.60052000000002" height="140.60052000000002" width="174.3342"><g><svg viewBox="0 0 174.3342 140.60052000000002" height="140.60052000000002" width="174.3342"><g><path d="M0 140.601v-140.601h174.334v140.601z" fill="#626e60" stroke="transparent" stroke-width="0" rx="0%" data-fill-palette-color="tertiary"></path><path d="M3.283 137.317v-134.034h167.768v134.034z" fill="#ffffff" stroke="transparent" stroke-width="0" rx="0%" data-fill-palette-color="quaternary"></path><path d="M9.85 130.751v-120.901h154.634v120.901z" fill="#626e60" stroke="transparent" stroke-width="0" data-fill-palette-color="tertiary"></path></g><g transform="matrix(1,0,0,1,19.69974,19.69974)" id="textblocktransform"><svg viewBox="0 0 134.93472000000003 101.20104000000002" height="101.20104000000002" width="134.93472000000003" id="textblock"><g><svg viewBox="0 0 134.93472000000003 101.20104000000002" height="101.20104000000002" width="134.93472000000003"><g transform="matrix(1,0,0,1,0,0)"><svg width="134.93472000000003" viewBox="3.65 -34 45.800000000000004 34.35" height="101.20104000000002" data-palette-color="#ffffff"><path d="M23.1-8.7L23.1-8.7Q23.1-4.3 20.15-1.98 17.2 0.35 12.6 0.35L12.6 0.35Q7.4 0.35 3.75-1.85L3.75-1.85 3.75-5.3Q5.25-4.15 7.63-3.4 10-2.65 12.45-2.65L12.45-2.65Q16-2.65 17.98-4.2 19.95-5.75 19.95-8.65L19.95-8.65Q19.95-10.85 18.45-12.23 16.95-13.6 14.1-14.85L14.1-14.85Q13.7-15.05 12.35-15.63 11-16.2 10.45-16.45 9.9-16.7 8.75-17.3 7.6-17.9 7.08-18.35 6.55-18.8 5.75-19.55 4.95-20.3 4.6-21.05 4.25-21.8 3.95-22.83 3.65-23.85 3.65-25L3.65-25Q3.65-29.25 6.7-31.63 9.75-34 14.15-34L14.15-34Q18.35-34 21.15-32.5L21.15-32.5 21.15-29.05Q19.95-29.85 18-30.4 16.05-30.95 14.2-30.95L14.2-30.95Q10.85-30.95 8.85-29.38 6.85-27.8 6.85-25.2L6.85-25.2Q6.85-23.85 7.38-22.8 7.9-21.75 9.15-20.88 10.4-20 11.33-19.53 12.25-19.05 14.15-18.25L14.15-18.25Q15.9-17.5 16.8-17.07 17.7-16.65 19.1-15.75 20.5-14.85 21.23-13.98 21.95-13.1 22.53-11.73 23.1-10.35 23.1-8.7ZM49.45-8.7L49.45-8.7Q49.45-4.3 46.5-1.98 43.55 0.35 38.95 0.35L38.95 0.35Q33.75 0.35 30.1-1.85L30.1-1.85 30.1-5.3Q31.6-4.15 33.97-3.4 36.35-2.65 38.8-2.65L38.8-2.65Q42.35-2.65 44.32-4.2 46.3-5.75 46.3-8.65L46.3-8.65Q46.3-10.85 44.8-12.23 43.3-13.6 40.45-14.85L40.45-14.85Q40.05-15.05 38.7-15.63 37.35-16.2 36.8-16.45 36.25-16.7 35.1-17.3 33.95-17.9 33.42-18.35 32.9-18.8 32.1-19.55 31.3-20.3 30.95-21.05 30.6-21.8 30.3-22.83 30-23.85 30-25L30-25Q30-29.25 33.05-31.63 36.1-34 40.5-34L40.5-34Q44.7-34 47.5-32.5L47.5-32.5 47.5-29.05Q46.3-29.85 44.35-30.4 42.4-30.95 40.55-30.95L40.55-30.95Q37.2-30.95 35.2-29.38 33.2-27.8 33.2-25.2L33.2-25.2Q33.2-23.85 33.72-22.8 34.25-21.75 35.5-20.88 36.75-20 37.67-19.53 38.6-19.05 40.5-18.25L40.5-18.25Q42.25-17.5 43.15-17.07 44.05-16.65 45.45-15.75 46.85-14.85 47.57-13.98 48.3-13.1 48.87-11.73 49.45-10.35 49.45-8.7Z" opacity="1" transform="matrix(1,0,0,1,0,0)" fill="#ffffff" class="wordmark-text-0" data-fill-palette-color="quaternary" id="text-0"></path></svg></g></svg></g></svg></g></svg></g><g></g></svg></g><defs></defs></svg><rect width="174.3342" height="140.60052000000002" fill="none" stroke="none" visibility="hidden"></rect></g></svg></g></svg>